<svg width="2000" height="2000" viewBox="0 0 2000 2000" fill="none" xmlns="http://www.w3.org/2000/svg">
<g clip-path="url(#clip0_2_8)">
<rect width="2000" height="2000" rx="1000" fill="#90D405"/>
<path d="M-884.708 1933.32C-871.908 1935.11 -853.44 1948.91 -847.189 1962.52L-816.569 2020.16C-809.852 2031.14 -808.738 2054.07 -814.376 2065.66L-898.196 2237.55C-916.128 2274.42 -907.006 2323.35 -875.365 2352.61L-783.22 2428.62C-751.439 2451.85 -699.297 2451.61 -667.543 2427.98L-514.628 2313.13C-505.058 2305.9 -483.439 2301.61 -467.465 2307.34L-405.16 2326.35C-392.672 2329.39 -375.625 2344.84 -371.444 2357.07L-309.174 2537.97C-295.968 2576.32 -255.412 2605.02 -214.813 2604.87C-214.813 2604.87 -189.923 2604.79 -152.948 2601.26C-115.973 2597.73 -91.5173 2593.1 -91.4462 2593.09C-71.2864 2588.78 -52.8879 2578.5 -38.6375 2563.61C-24.3872 2548.71 -14.9426 2529.87 -11.5289 2509.54L15.4381 2320.12C17.2359 2307.39 30.9712 2288.93 44.5813 2282.68L102.217 2252.06C112.315 2245.85 136.948 2244.58 147.714 2249.86L319.606 2333.68C334.734 2341.06 352.241 2344.06 370.372 2342.32C394.904 2339.98 417.831 2329.11 434.678 2310.92L510.689 2218.78C522.481 2201.77 528.746 2181.54 528.63 2160.84C528.515 2140.14 522.025 2119.98 510.043 2103.1L395.196 1950.19C387.466 1939.87 384.22 1917.15 389.4 1903.02L408.418 1840.72C411.459 1828.23 426.908 1811.18 439.137 1807L620.035 1744.73C639.308 1737.44 655.969 1724.57 667.886 1707.76C679.804 1690.95 686.437 1670.97 686.937 1650.37C686.937 1650.37 686.856 1625.48 683.324 1588.51C679.792 1551.53 675.16 1527.08 675.153 1527C670.762 1506.87 660.466 1488.51 645.581 1474.26C630.697 1460.01 611.901 1450.52 591.597 1447.02L402.259 1420.18C389.459 1418.39 370.991 1404.59 364.74 1390.98L334.12 1333.34C327.403 1322.36 326.289 1299.43 331.927 1287.84L415.747 1115.95C433.679 1079.08 424.557 1030.15 392.916 1000.89L300.771 924.876C268.912 901.586 216.699 901.837 185.094 925.522L32.1791 1040.37C22.602 1047.53 0.925751 1051.96 -14.9835 1046.17L-77.2886 1027.15C-89.7772 1024.11 -106.752 1008.65 -110.934 996.421L-173.275 815.529C-180.564 796.256 -193.436 779.596 -210.246 767.678C-227.055 755.76 -247.036 749.127 -267.636 748.627C-267.771 748.712 -292.662 748.794 -329.636 752.326C-366.611 755.858 -391.067 760.49 -391.138 760.497C-411.27 764.887 -429.635 775.183 -443.884 790.068C-458.132 804.952 -467.618 823.748 -471.127 844.053L-497.965 1033.32C-499.756 1046.12 -513.562 1064.59 -527.172 1070.84L-584.808 1101.46C-594.978 1107.67 -619.546 1108.87 -630.305 1103.65L-802.126 1019.82C-837.715 1002.56 -888.002 1010.95 -917.198 1042.58L-993.209 1134.73C-1005 1151.74 -1011.27 1171.97 -1011.15 1192.67C-1011.03 1213.37 -1004.54 1233.53 -992.563 1250.41L-877.716 1403.32C-869.986 1413.63 -866.74 1436.36 -871.92 1450.48L-890.938 1512.79C-893.979 1525.28 -909.428 1542.32 -921.657 1546.51L-1102.56 1608.78C-1121.83 1616.06 -1138.49 1628.94 -1150.41 1645.75C-1162.32 1662.56 -1168.96 1682.54 -1169.46 1703.14C-1169.32 1703.12 -1169.23 1728.01 -1165.7 1764.99C-1162.17 1801.96 -1157.54 1826.42 -1157.53 1826.49C-1153.14 1846.62 -1142.84 1864.99 -1127.96 1879.24C-1113.07 1893.48 -1094.28 1902.97 -1073.97 1906.48L-884.708 1933.32ZM-1094.6 1758.2C-1097.71 1725.63 -1097.89 1703.47 -1097.88 1702.76C-1097.25 1697.12 -1095.21 1691.74 -1091.93 1687.11C-1088.66 1682.49 -1084.27 1678.76 -1079.17 1676.29L-898.274 1614.02C-863.195 1601.91 -830.141 1565.6 -822.051 1531.61L-804.358 1473.45C-791.318 1438.69 -798.253 1390.13 -820.538 1360.4L-935.378 1207.56C-940.896 1200.12 -941.04 1184.35 -936.856 1178.57L-863.482 1089.62C-857.562 1083.24 -841.201 1080.24 -833.378 1084.02L-661.486 1167.84C-628.898 1183.74 -576.016 1179.98 -549.396 1163.44L-495.579 1134.91C-461.815 1119.56 -432.422 1080.23 -427.184 1043.42L-400.352 854.083C-398.9 848.594 -396.079 843.564 -392.154 839.462C-388.229 835.36 -383.328 832.321 -377.909 830.628C-377.198 830.56 -355.41 826.541 -322.844 823.43C-290.278 820.32 -268.123 820.141 -267.405 820.144C-261.772 820.774 -256.391 822.821 -251.762 826.093C-247.134 829.364 -243.409 833.755 -240.935 838.854L-178.672 1019.68C-166.567 1054.76 -130.324 1087.89 -96.258 1095.98L-38.0977 1113.67C-4.08135 1126.49 46.0232 1119.19 74.9474 1097.49L227.791 982.649C234.758 977.463 252.474 978.138 256.782 981.171L345.734 1054.55C352.508 1060.86 355.346 1076.3 351.336 1084.65L267.516 1256.54C251.255 1289.88 253.646 1338.95 271.909 1368.63L300.441 1422.45C315.793 1456.21 355.123 1485.61 391.931 1490.84L581.269 1517.68C586.757 1519.13 591.787 1521.95 595.889 1525.87C599.991 1529.8 603.03 1534.7 604.723 1540.12C604.791 1540.83 608.81 1562.62 611.921 1595.18C615.032 1627.75 615.211 1649.9 615.207 1650.62C614.577 1656.25 612.53 1661.64 609.259 1666.26C605.987 1670.89 601.597 1674.62 596.497 1677.09L415.598 1739.36C380.519 1751.47 347.465 1787.77 339.375 1821.77L321.682 1879.93C308.642 1914.68 315.577 1963.24 337.862 1992.97L452.703 2145.82C458.22 2153.26 458.364 2169.03 454.18 2174.81L380.806 2263.76C376.027 2268.08 369.926 2270.66 363.496 2271.08C359.177 2271.62 354.792 2271.03 350.774 2269.36L178.881 2185.54C146.371 2169.7 93.482 2173.39 66.7912 2189.93L12.9748 2218.46C-20.7898 2233.81 -50.1763 2273.21 -55.3499 2309.94L-82.2526 2499.29C-83.7051 2504.78 -86.5257 2509.81 -90.4506 2513.91C-94.3756 2518.01 -99.2766 2521.05 -104.695 2522.74C-105.478 2522.82 -127.266 2526.84 -159.832 2529.95C-192.398 2533.06 -214.553 2533.24 -215.27 2533.23C-220.903 2532.6 -226.285 2530.56 -230.914 2527.29C-235.542 2524.01 -239.267 2519.62 -241.741 2514.52L-304.011 2333.63C-316.115 2298.55 -352.423 2265.49 -386.418 2257.4L-444.578 2239.71C-461.178 2233.75 -478.932 2231.71 -496.45 2233.76C-519.844 2235.99 -541.55 2243.88 -557.616 2255.96L-710.46 2370.8C-717.427 2375.99 -735.221 2375.25 -739.451 2372.28L-828.409 2298.83C-835.183 2292.52 -838.022 2277.08 -834.012 2268.73L-750.192 2096.84C-733.931 2063.5 -736.322 2014.43 -754.584 1984.75L-783.117 1930.93C-798.469 1897.17 -837.799 1867.77 -874.607 1862.54L-1063.94 1835.7C-1069.43 1834.25 -1074.46 1831.43 -1078.56 1827.51C-1082.67 1823.58 -1085.71 1818.68 -1087.4 1813.26C-1087.47 1812.55 -1091.49 1790.76 -1094.6 1758.2Z" fill="white"/>
<path d="M399.805 773.991C397.132 781.063 392.792 793.088 388.069 808.378C380.306 833.504 376.678 850.765 376.678 850.765C369.989 882.672 386.015 919.209 413.968 935.776L527.785 1003.29C533.78 1008.4 537.639 1015.57 538.599 1023.39L542.844 1069.03C542.863 1076.21 540.371 1083.16 535.799 1088.69L436.627 1176.16C411.798 1198.03 403.509 1237.21 418.136 1269.1L457.101 1342.68C473.748 1370.17 512.122 1385.78 543.298 1377.84L675.501 1344.9C682.563 1345.27 689.482 1348.36 693.307 1351.78L728.612 1380.82C733.704 1385.91 736.844 1392.64 737.481 1399.81L729.232 1531.85C727.231 1564.36 748.338 1598.16 778.445 1610.48C778.445 1610.48 794.757 1617.2 819.883 1624.96C845.009 1632.73 862.27 1636.35 862.27 1636.35C864.11 1636.74 871.498 1637.7 873.353 1637.8C887.989 1638.39 902.523 1635.12 915.498 1628.32C928.473 1621.52 939.433 1611.43 947.281 1599.06L1014.8 1485.25C1019.9 1479.25 1027.08 1475.39 1034.89 1474.43L1082.55 1470.08C1089.68 1470.46 1097.9 1474.61 1100.13 1477.16L1187.6 1576.33C1208.85 1600.48 1246.3 1610.68 1280.54 1594.82L1354.05 1555.85C1382.27 1538.74 1397.46 1501.63 1389.28 1469.66L1356.55 1341.54C1355.89 1333.65 1358.3 1325.81 1363.29 1319.65L1392.33 1284.35C1397.39 1279.2 1404.13 1276.06 1411.32 1275.48L1544 1283.76C1560.4 1284.19 1576.56 1279.74 1590.44 1270.97C1604.31 1262.2 1615.26 1249.51 1621.91 1234.51C1621.91 1234.51 1628.64 1218.2 1636.4 1193.07C1641.11 1177.84 1644.29 1165.5 1646.07 1158.14L1577.66 1137.05C1575 1148.89 1571.84 1160.6 1568.19 1172.17C1564.61 1184.09 1560.5 1195.86 1555.89 1207.43C1554.85 1209.59 1550.04 1212.55 1547.75 1212.58L1415 1204.29C1385.69 1202.74 1351.94 1218.77 1335.91 1240.67L1309.76 1272.56C1299.51 1284.25 1292.15 1298.2 1288.27 1313.26C1284.4 1328.33 1284.11 1344.09 1287.45 1359.29L1320.11 1487.33C1320.26 1488.48 1319.69 1490.52 1319.27 1492.02C1318.98 1493.04 1318.76 1493.81 1318.91 1493.84L1249.15 1530.79L1241.16 1529.16L1153.61 1429.98C1138.09 1412.42 1111.63 1400.16 1086.23 1398.82C1081.35 1398.51 1076.45 1398.71 1071.61 1399.41L1030.28 1403.31C1014.78 1404.4 999.755 1409.09 986.389 1417C973.022 1424.91 961.682 1435.83 953.268 1448.89L885.828 1562.63C883.437 1564.91 880.331 1566.29 877.039 1566.53C864.842 1563.83 852.77 1560.59 840.857 1556.83C828.931 1553.24 817.167 1549.14 805.598 1544.53C803.436 1543.48 800.471 1538.68 800.449 1536.39L808.698 1404.35C810.541 1374.84 794.529 1340.73 772.35 1324.54L740.472 1298.33C728.767 1288.06 714.811 1280.7 699.732 1276.82C684.654 1272.94 668.875 1272.67 653.67 1276.01L525.055 1308.71C523.367 1308.62 521.619 1308.03 520.465 1307.64C519.585 1307.35 519.05 1307.17 519.152 1307.42L482.234 1237.72C481.547 1235.82 482.58 1231.16 483.872 1229.72L583.048 1142.18C605.184 1122.53 617.994 1087.16 613.623 1060.18L609.79 1018.92C608.687 1003.42 603.988 988.385 596.063 975.017C588.139 961.65 577.209 950.313 564.139 941.906L450.389 874.465C448.113 872.074 446.735 868.969 446.49 865.676C446.602 864.896 449.795 850.472 456.194 829.494C461.862 811.173 466.8 798.363 468.148 795.057L399.805 773.991Z" fill="white"/>
<path fill-rule="evenodd" clip-rule="evenodd" d="M826.094 936C826.065 936.091 826.037 936.182 826.008 936.273C790.718 1049.02 853.753 1169.49 966.502 1204.78C1079.25 1240.07 1199.72 1177.04 1235.01 1064.29C1235.04 1064.2 1235.07 1064.11 1235.1 1064.02L1166.93 1042.68C1166.9 1042.77 1166.87 1042.86 1166.85 1042.95C1143.31 1118.14 1063.03 1160.15 987.838 1136.62C912.65 1113.08 870.642 1032.8 894.176 957.609C894.204 957.518 894.233 957.427 894.261 957.336L826.094 936Z" fill="white"/>
<path d="M1627.2 1051.18L482 692.781C601.87 411.003 918.292 260.68 1216.67 354.058C1515.1 447.455 1689.35 751.335 1627.2 1051.18Z" stroke="white" stroke-width="80" stroke-linejoin="round"/>
<path d="M910.94 321.562L858.88 84.1313M1457.63 492.651L1870 84.1308" stroke="white" stroke-width="80" stroke-linecap="round" stroke-linejoin="round"/>
<path d="M840.661 647.071C872.443 657.017 906.271 639.316 916.217 607.534C926.163 575.752 908.462 541.924 876.68 531.978C844.898 522.032 811.071 539.733 801.124 571.515C791.178 603.297 808.879 637.124 840.661 647.071Z" stroke="white" stroke-width="50"/>
<path d="M1358.58 809.155C1390.36 819.101 1424.19 801.4 1434.13 769.618C1444.08 737.836 1426.38 704.008 1394.6 694.062C1362.81 684.116 1328.99 701.817 1319.04 733.599C1309.09 765.381 1326.8 799.208 1358.58 809.155Z" fill="white"/>
</g>
<defs>
<clipPath id="clip0_2_8">
<rect width="2000" height="2000" rx="1000" fill="white"/>
</clipPath>
</defs>
</svg>
